<?xml version="1.0" encoding="UTF-8"?>
<svg width="16px" height="16px" viewBox="0 0 16 16" version="1.1" xmlns="http://www.w3.org/2000/svg" xmlns:xlink="http://www.w3.org/1999/xlink">
    <!-- Generator: Sketch 43.2 (39069) - http://www.bohemiancoding.com/sketch -->
    <title>key</title>
    <desc>Created with Sketch.</desc>
    <defs></defs>
    <g id="Assets" stroke="none" stroke-width="1" fill="none" fill-rule="evenodd">
        <g id="key" fill="#A6A6A6">
            <path d="M11.363961,6.75736347 L9.43433653,8.68698798 C10.4182202,10.5719121 10.1186193,12.9524526 8.53553391,14.5355381 C7.56086885,15.5102031 6.28392457,15.9983571 5.00647076,16 C3.72470311,16.0016484 2.4424225,15.5134945 1.46446609,14.5355381 C-0.488155365,12.5829166 -0.488155365,9.41709171 1.46446609,7.46447026 C3.04755153,5.88138482 5.42809203,5.58178395 7.31301618,6.56566763 L13.131728,0.746955834 L15.2530483,2.86827618 L13.4852814,4.63604313 L15.9601551,7.11091686 L13.8388348,9.23223721 L11.363961,6.75736347 Z M3.58578644,12.4142177 C4.36683502,13.1952663 5.63316498,13.1952663 6.41421356,12.4142177 C7.19526215,11.6331691 7.19526215,10.3668392 6.41421356,9.5857906 C5.63316498,8.80474202 4.36683502,8.80474202 3.58578644,9.5857906 C2.80473785,10.3668392 2.80473785,11.6331691 3.58578644,12.4142177 Z" id="shape"></path>
        </g>
    </g>
</svg>